<?xml version="1.0" standalone="no"?>
<!DOCTYPE svg PUBLIC "-//W3C//DTD SVG 20010904//EN"
 "http://www.w3.org/TR/2001/REC-SVG-20010904/DTD/svg10.dtd">
<svg version="1.0" xmlns="http://www.w3.org/2000/svg"
 width="1023.000000pt" height="1012.000000pt" viewBox="0 0 1023.000000 1012.000000"
 preserveAspectRatio="xMidYMid meet">

<g transform="translate(0.000000,1012.000000) scale(0.100000,-0.100000)"
fill="#000000" stroke="none">
<path d="M5220 10105 c-155 -17 -270 -51 -255 -74 5 -9 122 -24 335 -41 593
-48 1164 -227 1846 -576 622 -319 1210 -836 1657 -1457 458 -636 743 -1385
843 -2217 25 -209 31 -832 10 -1031 -73 -680 -265 -1262 -627 -1899 -181 -318
-372 -563 -679 -871 -257 -257 -414 -389 -697 -583 -528 -362 -1203 -633
-1843 -740 -321 -53 -411 -60 -790 -60 -310 0 -376 3 -524 23 -370 49 -657
116 -960 226 -738 268 -1354 688 -1876 1282 -360 409 -652 905 -844 1435 -314
867 -348 1849 -95 2723 256 883 704 1609 1326 2149 92 80 220 216 344 366 115
139 179 257 179 327 0 35 -5 46 -27 60 -79 52 -334 -14 -614 -158 -77 -40
-124 -74 -245 -183 -499 -447 -853 -910 -1139 -1491 -397 -805 -588 -1712
-535 -2540 46 -721 210 -1344 520 -1980 426 -876 1159 -1654 2013 -2139 359
-204 801 -383 1202 -486 696 -180 1409 -213 2125 -100 1071 171 2081 689 2860
1469 260 260 426 464 635 781 400 607 658 1239 781 1915 34 187 64 463 64 588
0 43 5 133 11 200 26 289 -47 856 -176 1361 -164 644 -416 1174 -824 1736
-233 321 -573 669 -926 946 -421 331 -826 560 -1361 768 -560 217 -1234 324
-1714 271z"/>
<path d="M5455 7803 c-78 -41 -140 -144 -166 -278 -28 -145 -10 -454 35 -610
8 -28 29 -104 46 -170 127 -484 461 -945 704 -972 72 -9 110 4 164 52 82 74
118 182 128 385 30 604 -357 1446 -734 1593 -53 21 -137 21 -177 0z"/>
<path d="M3194 7031 c-115 -28 -184 -142 -215 -352 -19 -129 0 -373 40 -529
85 -333 117 -423 216 -616 131 -254 292 -442 445 -520 78 -39 170 -40 228 -1
241 159 207 824 -72 1412 -189 398 -457 651 -642 606z"/>
<path d="M8041 6290 c-59 -13 -82 -29 -177 -124 -77 -78 -81 -84 -90 -142 -16
-96 5 -141 81 -175 22 -10 69 -22 105 -28 36 -6 93 -24 126 -41 38 -18 77 -30
102 -30 50 0 47 16 63 -290 16 -310 7 -680 -20 -827 -45 -245 -107 -457 -206
-708 -99 -251 -229 -513 -282 -570 -10 -11 -31 -42 -47 -70 -157 -274 -510
-655 -791 -854 -407 -288 -892 -474 -1400 -536 -160 -19 -576 -14 -729 9 -332
50 -605 136 -906 285 -281 140 -507 299 -719 506 -283 276 -472 534 -618 843
-52 109 -55 114 -116 153 -34 21 -72 42 -84 45 -34 9 -27 24 11 24 37 0 37 0
75 120 46 146 71 266 71 342 l0 77 -57 7 c-31 4 -93 4 -139 1 -317 -22 -556
-225 -635 -537 -29 -115 -23 -155 42 -286 51 -102 57 -109 108 -137 65 -35
116 -38 163 -9 l34 21 38 -77 c253 -516 673 -1006 1136 -1324 414 -285 890
-484 1360 -572 240 -44 328 -51 650 -51 266 1 324 3 455 23 791 120 1444 442
1996 983 329 322 553 658 719 1081 122 308 194 616 222 943 12 152 6 596 -11
670 -6 28 -22 107 -36 177 -20 101 -82 315 -111 386 -4 9 18 12 93 12 120 0
266 15 319 32 49 16 54 42 24 141 -58 193 -194 362 -355 445 -94 47 -166 64
-295 68 -69 1 -145 -1 -169 -6z"/>
</g>
</svg>
